# xmcd
#
# Track frame offsets:
#  150
#  17331
#  39548
#  69855
#  86833
#  111897
#  125504
#  145446
#  169592
#  184396
#  210372
#  233115
#  254746
#  284434
#
# Disc length: 4002 seconds
#
# Revision: 2
# Processed by: cddbd v1.5.1PL2 Copyright (c) Steve Scherf et al.
# Submitted via: Collectorz.com_Music_Collector 6.11
#
DISCID=c90fa00e
DTITLE=Various Artist - Shuffle With Lester
DYEAR=2006
DGENRE=Blues -  Blues Harmonica -  Blues Texas Style
TTITLE0=She Know How
TTITLE1=Bright Lights, Big City
TTITLE2=Hey Mr Devil
TTITLE3=Judgement Day
TTITLE4=Tear Drops
TTITLE5=Leaving In The Morning
TTITLE6=You Were My Love Bird
TTITLE7=You Don't Have To Go
TTITLE8=Don't Start Me Talking
TTITLE9=The Sky Is Crying
TTITLE10=Don't Worry Baby
TTITLE11=One Of These Mornings
TTITLE12=Shuffle With Lester
TTITLE13=Wasted Days and Wasted Nights
EXTD=
EXTT0=
EXTT1=
EXTT2=
EXTT3=
EXTT4=
EXTT5=
EXTT6=
EXTT7=
EXTT8=
EXTT9=
EXTT10=
EXTT11=
EXTT12=
EXTT13=
PLAYORDER=
